<mxfile host="app.diagrams.net" modified="2020-11-19T19:27:47.418Z" agent="5.0 (Macintosh; Intel Mac OS X 10_15_6) AppleWebKit/537.36 (KHTML, like Gecko) Chrome/86.0.4240.198 Safari/537.36" etag="5f8A71r0i7J0d3At1pVk" version="13.9.9" type="github">
  <diagram id="xXC8S_svYIRL2FnE1IQ2" name="Page-1">
    <mxGraphModel dx="3297" dy="3077" grid="1" gridSize="10" guides="1" tooltips="1" connect="1" arrows="1" fold="1" page="1" pageScale="1" pageWidth="1500" pageHeight="1000" math="0" shadow="0">
      <root>
        <mxCell id="0" />
        <mxCell id="1" parent="0" />
        <mxCell id="JVTaZavZ11wcBZYtvzni-7" style="edgeStyle=orthogonalEdgeStyle;rounded=0;orthogonalLoop=1;jettySize=auto;html=1;exitX=0.75;exitY=1;exitDx=0;exitDy=0;entryX=0.25;entryY=0;entryDx=0;entryDy=0;strokeWidth=2;" parent="1" source="JVTaZavZ11wcBZYtvzni-1" target="JVTaZavZ11wcBZYtvzni-3" edge="1">
          <mxGeometry relative="1" as="geometry">
            <Array as="points">
              <mxPoint x="370" y="740" />
              <mxPoint x="470" y="740" />
            </Array>
          </mxGeometry>
        </mxCell>
        <mxCell id="JVTaZavZ11wcBZYtvzni-10" style="edgeStyle=orthogonalEdgeStyle;rounded=0;orthogonalLoop=1;jettySize=auto;html=1;exitX=0.5;exitY=0;exitDx=0;exitDy=0;entryX=0.25;entryY=1;entryDx=0;entryDy=0;strokeWidth=2;" parent="1" source="JVTaZavZ11wcBZYtvzni-1" target="JVTaZavZ11wcBZYtvzni-9" edge="1">
          <mxGeometry relative="1" as="geometry" />
        </mxCell>
        <mxCell id="JVTaZavZ11wcBZYtvzni-1" value="Server gets&lt;br&gt;JWT from Keycloak" style="rounded=0;whiteSpace=wrap;html=1;fillColor=#f5f5f5;strokeColor=#666666;fontColor=#333333;" parent="1" vertex="1">
          <mxGeometry x="280" y="620" width="120" height="60" as="geometry" />
        </mxCell>
        <mxCell id="JVTaZavZ11wcBZYtvzni-6" style="edgeStyle=orthogonalEdgeStyle;rounded=0;orthogonalLoop=1;jettySize=auto;html=1;exitX=0.5;exitY=0;exitDx=0;exitDy=0;entryX=0.25;entryY=1;entryDx=0;entryDy=0;strokeWidth=2;" parent="1" source="JVTaZavZ11wcBZYtvzni-2" target="JVTaZavZ11wcBZYtvzni-1" edge="1">
          <mxGeometry relative="1" as="geometry">
            <Array as="points">
              <mxPoint x="260" y="740" />
              <mxPoint x="310" y="740" />
            </Array>
          </mxGeometry>
        </mxCell>
        <mxCell id="JVTaZavZ11wcBZYtvzni-2" value="Client authenticates" style="rounded=0;whiteSpace=wrap;html=1;fillColor=#f5f5f5;strokeColor=#666666;fontColor=#333333;" parent="1" vertex="1">
          <mxGeometry x="200" y="820" width="120" height="60" as="geometry" />
        </mxCell>
        <mxCell id="JVTaZavZ11wcBZYtvzni-8" style="edgeStyle=orthogonalEdgeStyle;rounded=0;orthogonalLoop=1;jettySize=auto;html=1;exitX=0.75;exitY=0;exitDx=0;exitDy=0;strokeWidth=2;" parent="1" source="JVTaZavZ11wcBZYtvzni-3" target="JVTaZavZ11wcBZYtvzni-4" edge="1">
          <mxGeometry relative="1" as="geometry">
            <Array as="points">
              <mxPoint x="530" y="740" />
              <mxPoint x="580" y="740" />
            </Array>
          </mxGeometry>
        </mxCell>
        <mxCell id="JVTaZavZ11wcBZYtvzni-3" value="Client makes request using JWT" style="rounded=0;whiteSpace=wrap;html=1;fillColor=#f5f5f5;strokeColor=#666666;fontColor=#333333;" parent="1" vertex="1">
          <mxGeometry x="440" y="820" width="120" height="60" as="geometry" />
        </mxCell>
        <mxCell id="JVTaZavZ11wcBZYtvzni-15" style="edgeStyle=orthogonalEdgeStyle;rounded=0;orthogonalLoop=1;jettySize=auto;html=1;exitX=1;exitY=0.5;exitDx=0;exitDy=0;entryX=0;entryY=0.5;entryDx=0;entryDy=0;startArrow=none;startFill=0;strokeWidth=2;" parent="1" source="JVTaZavZ11wcBZYtvzni-4" target="JVTaZavZ11wcBZYtvzni-12" edge="1">
          <mxGeometry relative="1" as="geometry" />
        </mxCell>
        <mxCell id="JVTaZavZ11wcBZYtvzni-4" value="Server validates&lt;br&gt;JWT" style="rounded=0;whiteSpace=wrap;html=1;fillColor=#f5f5f5;strokeColor=#666666;fontColor=#333333;" parent="1" vertex="1">
          <mxGeometry x="520" y="620" width="120" height="60" as="geometry" />
        </mxCell>
        <mxCell id="JVTaZavZ11wcBZYtvzni-5" value="" style="endArrow=none;html=1;" parent="1" edge="1">
          <mxGeometry width="50" height="50" relative="1" as="geometry">
            <mxPoint x="120" y="740" as="sourcePoint" />
            <mxPoint x="1360" y="740" as="targetPoint" />
          </mxGeometry>
        </mxCell>
        <mxCell id="JVTaZavZ11wcBZYtvzni-11" style="edgeStyle=orthogonalEdgeStyle;rounded=0;orthogonalLoop=1;jettySize=auto;html=1;exitX=0.75;exitY=1;exitDx=0;exitDy=0;strokeWidth=2;startArrow=classic;startFill=1;" parent="1" source="JVTaZavZ11wcBZYtvzni-9" target="JVTaZavZ11wcBZYtvzni-4" edge="1">
          <mxGeometry relative="1" as="geometry" />
        </mxCell>
        <mxCell id="JVTaZavZ11wcBZYtvzni-9" value="Keycloak" style="rounded=1;whiteSpace=wrap;html=1;fillColor=#f8cecc;strokeColor=#b85450;" parent="1" vertex="1">
          <mxGeometry x="280" y="520" width="360" height="60" as="geometry" />
        </mxCell>
        <mxCell id="JVTaZavZ11wcBZYtvzni-14" style="edgeStyle=orthogonalEdgeStyle;rounded=0;orthogonalLoop=1;jettySize=auto;html=1;exitX=0.5;exitY=0;exitDx=0;exitDy=0;entryX=1;entryY=0.5;entryDx=0;entryDy=0;strokeWidth=2;startArrow=classic;startFill=1;" parent="1" source="JVTaZavZ11wcBZYtvzni-12" target="JVTaZavZ11wcBZYtvzni-9" edge="1">
          <mxGeometry relative="1" as="geometry" />
        </mxCell>
        <mxCell id="JVTaZavZ11wcBZYtvzni-18" style="edgeStyle=orthogonalEdgeStyle;rounded=0;orthogonalLoop=1;jettySize=auto;html=1;exitX=1;exitY=0.5;exitDx=0;exitDy=0;startArrow=none;startFill=0;strokeWidth=2;" parent="1" source="JVTaZavZ11wcBZYtvzni-12" target="JVTaZavZ11wcBZYtvzni-17" edge="1">
          <mxGeometry relative="1" as="geometry" />
        </mxCell>
        <mxCell id="JVTaZavZ11wcBZYtvzni-12" value="Server&lt;br&gt;verifies access&lt;br&gt;permissions" style="rounded=0;whiteSpace=wrap;html=1;fillColor=#f5f5f5;strokeColor=#666666;fontColor=#333333;" parent="1" vertex="1">
          <mxGeometry x="680" y="620" width="120" height="60" as="geometry" />
        </mxCell>
        <mxCell id="JVTaZavZ11wcBZYtvzni-62" style="edgeStyle=orthogonalEdgeStyle;rounded=0;orthogonalLoop=1;jettySize=auto;html=1;exitX=1;exitY=0.5;exitDx=0;exitDy=0;startArrow=none;startFill=0;strokeWidth=2;fontSize=22;" parent="1" source="JVTaZavZ11wcBZYtvzni-17" target="JVTaZavZ11wcBZYtvzni-59" edge="1">
          <mxGeometry relative="1" as="geometry" />
        </mxCell>
        <mxCell id="JVTaZavZ11wcBZYtvzni-17" value="Server generates request to hub API" style="rounded=0;whiteSpace=wrap;html=1;fillColor=#f5f5f5;strokeColor=#666666;fontColor=#333333;" parent="1" vertex="1">
          <mxGeometry x="840" y="620" width="120" height="60" as="geometry" />
        </mxCell>
        <mxCell id="JVTaZavZ11wcBZYtvzni-20" value="" style="endArrow=none;html=1;" parent="1" edge="1">
          <mxGeometry width="50" height="50" relative="1" as="geometry">
            <mxPoint x="120" y="420" as="sourcePoint" />
            <mxPoint x="1360" y="420" as="targetPoint" />
          </mxGeometry>
        </mxCell>
        <mxCell id="JVTaZavZ11wcBZYtvzni-71" style="edgeStyle=orthogonalEdgeStyle;rounded=0;orthogonalLoop=1;jettySize=auto;html=1;exitX=0.5;exitY=0;exitDx=0;exitDy=0;entryX=0.75;entryY=1;entryDx=0;entryDy=0;startArrow=none;startFill=0;strokeWidth=2;fontSize=22;" parent="1" source="JVTaZavZ11wcBZYtvzni-21" target="JVTaZavZ11wcBZYtvzni-65" edge="1">
          <mxGeometry relative="1" as="geometry" />
        </mxCell>
        <mxCell id="JVTaZavZ11wcBZYtvzni-21" value="CODA-19 site API" style="rounded=0;whiteSpace=wrap;html=1;fillColor=#d5e8d4;strokeColor=#82b366;" parent="1" vertex="1">
          <mxGeometry x="1000" y="320" width="120" height="60" as="geometry" />
        </mxCell>
        <mxCell id="JVTaZavZ11wcBZYtvzni-29" value="" style="strokeColor=#dddddd;shadow=1;strokeWidth=1;rounded=1;absoluteArcSize=1;arcSize=2;" parent="1" vertex="1">
          <mxGeometry x="320" y="450" width="290" height="40" as="geometry" />
        </mxCell>
        <mxCell id="JVTaZavZ11wcBZYtvzni-30" value="" style="dashed=0;connectable=0;html=1;fillColor=#5184F3;strokeColor=none;shape=mxgraph.gcp2.hexIcon;prIcon=key_management_service;part=1;labelPosition=right;verticalLabelPosition=middle;align=center;verticalAlign=middle;spacingLeft=5;fontColor=#999999;fontSize=12;" parent="JVTaZavZ11wcBZYtvzni-29" vertex="1">
          <mxGeometry y="0.5" width="44" height="39" relative="1" as="geometry">
            <mxPoint x="5" y="-19.5" as="offset" />
          </mxGeometry>
        </mxCell>
        <mxCell id="JVTaZavZ11wcBZYtvzni-31" value="CODA-19 site API key" style="text;html=1;strokeColor=none;fillColor=none;align=center;verticalAlign=middle;whiteSpace=wrap;rounded=0;" parent="JVTaZavZ11wcBZYtvzni-29" vertex="1">
          <mxGeometry x="70" y="13.333333333333332" width="150" height="13.333333333333332" as="geometry" />
        </mxCell>
        <mxCell id="JVTaZavZ11wcBZYtvzni-35" value="Stored in Keycloak or other vault" style="text;html=1;strokeColor=none;fillColor=none;align=center;verticalAlign=middle;whiteSpace=wrap;rounded=0;" parent="1" vertex="1">
          <mxGeometry x="640" y="445" width="80" height="50" as="geometry" />
        </mxCell>
        <mxCell id="JVTaZavZ11wcBZYtvzni-43" value="" style="endArrow=none;html=1;" parent="1" edge="1">
          <mxGeometry width="50" height="50" relative="1" as="geometry">
            <mxPoint x="120" y="259.17" as="sourcePoint" />
            <mxPoint x="1360" y="259" as="targetPoint" />
          </mxGeometry>
        </mxCell>
        <mxCell id="JVTaZavZ11wcBZYtvzni-74" style="edgeStyle=orthogonalEdgeStyle;rounded=0;orthogonalLoop=1;jettySize=auto;html=1;exitX=1;exitY=0.5;exitDx=0;exitDy=0;startArrow=none;startFill=0;strokeWidth=2;fontSize=22;" parent="1" source="JVTaZavZ11wcBZYtvzni-44" target="JVTaZavZ11wcBZYtvzni-73" edge="1">
          <mxGeometry relative="1" as="geometry" />
        </mxCell>
        <mxCell id="JVTaZavZ11wcBZYtvzni-44" value="CODA-19 AidBox" style="rounded=0;whiteSpace=wrap;html=1;fillColor=#ffe6cc;strokeColor=#d79b00;" parent="1" vertex="1">
          <mxGeometry x="1000" y="145" width="120" height="60" as="geometry" />
        </mxCell>
        <mxCell id="JVTaZavZ11wcBZYtvzni-45" value="Orange VM" style="text;html=1;strokeColor=none;fillColor=none;align=left;verticalAlign=middle;whiteSpace=wrap;rounded=0;fontSize=22;" parent="1" vertex="1">
          <mxGeometry x="120" y="140" width="150" height="30" as="geometry" />
        </mxCell>
        <mxCell id="JVTaZavZ11wcBZYtvzni-46" value="" style="strokeColor=#dddddd;shadow=1;strokeWidth=1;rounded=1;absoluteArcSize=1;arcSize=2;" parent="1" vertex="1">
          <mxGeometry x="320" y="320" width="290" height="40" as="geometry" />
        </mxCell>
        <mxCell id="JVTaZavZ11wcBZYtvzni-47" value="" style="dashed=0;connectable=0;html=1;fillColor=#5184F3;strokeColor=none;shape=mxgraph.gcp2.hexIcon;prIcon=key_management_service;part=1;labelPosition=right;verticalLabelPosition=middle;align=center;verticalAlign=middle;spacingLeft=5;fontColor=#999999;fontSize=12;" parent="JVTaZavZ11wcBZYtvzni-46" vertex="1">
          <mxGeometry y="0.5" width="44" height="39" relative="1" as="geometry">
            <mxPoint x="5" y="-19.5" as="offset" />
          </mxGeometry>
        </mxCell>
        <mxCell id="JVTaZavZ11wcBZYtvzni-48" value="CODA-19 site API key" style="text;html=1;strokeColor=none;fillColor=none;align=center;verticalAlign=middle;whiteSpace=wrap;rounded=0;" parent="JVTaZavZ11wcBZYtvzni-46" vertex="1">
          <mxGeometry x="70" y="13.333333333333332" width="150" height="13.333333333333332" as="geometry" />
        </mxCell>
        <mxCell id="JVTaZavZ11wcBZYtvzni-49" value="Green VM" style="text;html=1;strokeColor=none;fillColor=none;align=left;verticalAlign=middle;whiteSpace=wrap;rounded=0;fontSize=22;" parent="1" vertex="1">
          <mxGeometry x="120" y="278" width="150" height="30" as="geometry" />
        </mxCell>
        <mxCell id="JVTaZavZ11wcBZYtvzni-50" value="Master VM" style="text;html=1;strokeColor=none;fillColor=none;align=left;verticalAlign=middle;whiteSpace=wrap;rounded=0;fontSize=22;" parent="1" vertex="1">
          <mxGeometry x="120" y="445" width="150" height="30" as="geometry" />
        </mxCell>
        <mxCell id="JVTaZavZ11wcBZYtvzni-51" value="Client app" style="text;html=1;strokeColor=none;fillColor=none;align=left;verticalAlign=middle;whiteSpace=wrap;rounded=0;fontSize=22;" parent="1" vertex="1">
          <mxGeometry x="120" y="760" width="150" height="30" as="geometry" />
        </mxCell>
        <mxCell id="JVTaZavZ11wcBZYtvzni-52" value="" style="endArrow=none;html=1;" parent="1" edge="1">
          <mxGeometry width="50" height="50" relative="1" as="geometry">
            <mxPoint x="120" y="120" as="sourcePoint" />
            <mxPoint x="1360" y="120" as="targetPoint" />
          </mxGeometry>
        </mxCell>
        <mxCell id="JVTaZavZ11wcBZYtvzni-63" style="edgeStyle=orthogonalEdgeStyle;rounded=0;orthogonalLoop=1;jettySize=auto;html=1;exitX=1;exitY=0.5;exitDx=0;exitDy=0;startArrow=none;startFill=0;strokeWidth=2;fontSize=22;" parent="1" source="JVTaZavZ11wcBZYtvzni-53" target="JVTaZavZ11wcBZYtvzni-59" edge="1">
          <mxGeometry relative="1" as="geometry" />
        </mxCell>
        <mxCell id="JVTaZavZ11wcBZYtvzni-53" value="CODA-19 hub API" style="rounded=0;whiteSpace=wrap;html=1;strokeColor=#9673a6;fillColor=#e1d5e7;" parent="1" vertex="1">
          <mxGeometry x="840" y="520" width="120" height="60" as="geometry" />
        </mxCell>
        <mxCell id="JVTaZavZ11wcBZYtvzni-56" style="edgeStyle=orthogonalEdgeStyle;rounded=0;orthogonalLoop=1;jettySize=auto;html=1;exitX=0.5;exitY=1;exitDx=0;exitDy=0;startArrow=none;startFill=0;strokeWidth=2;fontSize=22;" parent="1" source="JVTaZavZ11wcBZYtvzni-54" target="JVTaZavZ11wcBZYtvzni-53" edge="1">
          <mxGeometry relative="1" as="geometry" />
        </mxCell>
        <mxCell id="JVTaZavZ11wcBZYtvzni-57" value="&lt;font style=&quot;font-size: 11px ; line-height: 90%&quot;&gt;&lt;br&gt;&lt;/font&gt;" style="edgeLabel;html=1;align=center;verticalAlign=middle;resizable=0;points=[];fontSize=22;" parent="JVTaZavZ11wcBZYtvzni-56" vertex="1" connectable="0">
          <mxGeometry x="0.2113" y="1" relative="1" as="geometry">
            <mxPoint as="offset" />
          </mxGeometry>
        </mxCell>
        <mxCell id="JVTaZavZ11wcBZYtvzni-58" value="&lt;span style=&quot;font-size: 13px&quot;&gt;establish secure channel&lt;br&gt;&lt;/span&gt;" style="edgeLabel;html=1;align=center;verticalAlign=middle;resizable=0;points=[];fontSize=22;" parent="JVTaZavZ11wcBZYtvzni-56" vertex="1" connectable="0">
          <mxGeometry x="-0.1161" y="-1" relative="1" as="geometry">
            <mxPoint y="18.33" as="offset" />
          </mxGeometry>
        </mxCell>
        <mxCell id="JVTaZavZ11wcBZYtvzni-54" value="CODA-19 site API" style="rounded=0;whiteSpace=wrap;html=1;fillColor=#d5e8d4;strokeColor=#82b366;" parent="1" vertex="1">
          <mxGeometry x="840" y="320" width="120" height="60" as="geometry" />
        </mxCell>
        <mxCell id="JVTaZavZ11wcBZYtvzni-61" style="edgeStyle=orthogonalEdgeStyle;rounded=0;orthogonalLoop=1;jettySize=auto;html=1;exitX=0.5;exitY=0;exitDx=0;exitDy=0;startArrow=none;startFill=0;strokeWidth=2;fontSize=22;" parent="1" source="JVTaZavZ11wcBZYtvzni-85" target="JVTaZavZ11wcBZYtvzni-21" edge="1">
          <mxGeometry relative="1" as="geometry" />
        </mxCell>
        <mxCell id="JVTaZavZ11wcBZYtvzni-64" value="&lt;font style=&quot;font-size: 13px&quot;&gt;WebSocket &lt;b&gt;send&lt;/b&gt;&lt;br&gt;&lt;/font&gt;" style="edgeLabel;html=1;align=center;verticalAlign=middle;resizable=0;points=[];fontSize=22;" parent="JVTaZavZ11wcBZYtvzni-61" vertex="1" connectable="0">
          <mxGeometry x="-0.1476" y="5" relative="1" as="geometry">
            <mxPoint x="5" y="-8.33" as="offset" />
          </mxGeometry>
        </mxCell>
        <mxCell id="JVTaZavZ11wcBZYtvzni-59" value="CODA-19 hub API" style="rounded=0;whiteSpace=wrap;html=1;fillColor=#e1d5e7;strokeColor=#9673a6;" parent="1" vertex="1">
          <mxGeometry x="1000" y="520" width="120" height="60" as="geometry" />
        </mxCell>
        <mxCell id="JVTaZavZ11wcBZYtvzni-72" style="edgeStyle=orthogonalEdgeStyle;rounded=0;orthogonalLoop=1;jettySize=auto;html=1;exitX=0.75;exitY=0;exitDx=0;exitDy=0;startArrow=none;startFill=0;strokeWidth=2;fontSize=22;" parent="1" source="JVTaZavZ11wcBZYtvzni-65" target="JVTaZavZ11wcBZYtvzni-44" edge="1">
          <mxGeometry relative="1" as="geometry" />
        </mxCell>
        <mxCell id="JVTaZavZ11wcBZYtvzni-65" value="" style="strokeColor=#dddddd;shadow=1;strokeWidth=1;rounded=1;absoluteArcSize=1;arcSize=2;" parent="1" vertex="1">
          <mxGeometry x="842" y="238" width="290" height="40" as="geometry" />
        </mxCell>
        <mxCell id="JVTaZavZ11wcBZYtvzni-66" value="" style="dashed=0;connectable=0;html=1;fillColor=#5184F3;strokeColor=none;shape=mxgraph.gcp2.hexIcon;prIcon=key_management_service;part=1;labelPosition=right;verticalLabelPosition=middle;align=center;verticalAlign=middle;spacingLeft=5;fontColor=#999999;fontSize=12;" parent="JVTaZavZ11wcBZYtvzni-65" vertex="1">
          <mxGeometry y="0.5" width="44" height="39" relative="1" as="geometry">
            <mxPoint x="5" y="-19.5" as="offset" />
          </mxGeometry>
        </mxCell>
        <mxCell id="JVTaZavZ11wcBZYtvzni-67" value="AidBox READ user credentials" style="text;html=1;strokeColor=none;fillColor=none;align=center;verticalAlign=middle;whiteSpace=wrap;rounded=0;" parent="JVTaZavZ11wcBZYtvzni-65" vertex="1">
          <mxGeometry x="71" y="13.33" width="180" height="13.33" as="geometry" />
        </mxCell>
        <mxCell id="JVTaZavZ11wcBZYtvzni-77" style="edgeStyle=orthogonalEdgeStyle;rounded=0;orthogonalLoop=1;jettySize=auto;html=1;exitX=0.5;exitY=1;exitDx=0;exitDy=0;startArrow=none;startFill=0;strokeWidth=2;fontSize=22;" parent="1" source="JVTaZavZ11wcBZYtvzni-89" target="JVTaZavZ11wcBZYtvzni-76" edge="1">
          <mxGeometry relative="1" as="geometry" />
        </mxCell>
        <mxCell id="JVTaZavZ11wcBZYtvzni-73" value="CODA-19 site API" style="rounded=0;whiteSpace=wrap;html=1;fillColor=#d5e8d4;strokeColor=#82b366;" parent="1" vertex="1">
          <mxGeometry x="1160" y="320" width="120" height="60" as="geometry" />
        </mxCell>
        <mxCell id="JVTaZavZ11wcBZYtvzni-83" style="edgeStyle=orthogonalEdgeStyle;rounded=0;orthogonalLoop=1;jettySize=auto;html=1;exitX=0.5;exitY=1;exitDx=0;exitDy=0;startArrow=none;startFill=0;strokeWidth=2;fontFamily=Courier New;fontSize=14;" parent="1" source="JVTaZavZ11wcBZYtvzni-76" target="JVTaZavZ11wcBZYtvzni-82" edge="1">
          <mxGeometry relative="1" as="geometry" />
        </mxCell>
        <mxCell id="JVTaZavZ11wcBZYtvzni-76" value="CODA-19 hub API" style="rounded=0;whiteSpace=wrap;html=1;fillColor=#e1d5e7;strokeColor=#9673a6;" parent="1" vertex="1">
          <mxGeometry x="1160" y="520" width="120" height="60" as="geometry" />
        </mxCell>
        <mxCell id="JVTaZavZ11wcBZYtvzni-82" value="Client receives&lt;br&gt;data" style="rounded=0;whiteSpace=wrap;html=1;fillColor=#f5f5f5;strokeColor=#666666;fontColor=#333333;" parent="1" vertex="1">
          <mxGeometry x="1160" y="820" width="120" height="60" as="geometry" />
        </mxCell>
        <mxCell id="JVTaZavZ11wcBZYtvzni-85" value="&lt;font style=&quot;font-size: 22px&quot;&gt;&lt;b&gt;1&lt;/b&gt;&lt;/font&gt;" style="ellipse;whiteSpace=wrap;html=1;aspect=fixed;fillColor=#fff2cc;fontFamily=Courier New;fontSize=14;align=center;strokeColor=#d6b656;" parent="1" vertex="1">
          <mxGeometry x="1045" y="465" width="30" height="30" as="geometry" />
        </mxCell>
        <mxCell id="JVTaZavZ11wcBZYtvzni-86" style="edgeStyle=orthogonalEdgeStyle;rounded=0;orthogonalLoop=1;jettySize=auto;html=1;exitX=0.5;exitY=0;exitDx=0;exitDy=0;startArrow=none;startFill=0;strokeWidth=2;fontSize=22;" parent="1" source="JVTaZavZ11wcBZYtvzni-59" target="JVTaZavZ11wcBZYtvzni-85" edge="1">
          <mxGeometry relative="1" as="geometry">
            <mxPoint x="1060" y="520" as="sourcePoint" />
            <mxPoint x="1060" y="380" as="targetPoint" />
          </mxGeometry>
        </mxCell>
        <mxCell id="JVTaZavZ11wcBZYtvzni-89" value="&lt;font style=&quot;font-size: 22px&quot;&gt;&lt;b&gt;2&lt;/b&gt;&lt;/font&gt;" style="ellipse;whiteSpace=wrap;html=1;aspect=fixed;fillColor=#fff2cc;fontFamily=Courier New;fontSize=14;align=center;strokeColor=#d6b656;" parent="1" vertex="1">
          <mxGeometry x="1205" y="465" width="30" height="30" as="geometry" />
        </mxCell>
        <mxCell id="JVTaZavZ11wcBZYtvzni-92" style="edgeStyle=orthogonalEdgeStyle;rounded=0;orthogonalLoop=1;jettySize=auto;html=1;exitX=0.5;exitY=1;exitDx=0;exitDy=0;startArrow=none;startFill=0;strokeWidth=2;fontSize=22;" parent="1" source="JVTaZavZ11wcBZYtvzni-73" target="JVTaZavZ11wcBZYtvzni-89" edge="1">
          <mxGeometry relative="1" as="geometry">
            <mxPoint x="1220" y="380" as="sourcePoint" />
            <mxPoint x="1220" y="520" as="targetPoint" />
          </mxGeometry>
        </mxCell>
        <mxCell id="JVTaZavZ11wcBZYtvzni-93" value="&lt;span style=&quot;font-size: 13px&quot;&gt;WebSocket &lt;b&gt;receive&lt;/b&gt;&lt;/span&gt;" style="edgeLabel;html=1;align=center;verticalAlign=middle;resizable=0;points=[];fontSize=22;" parent="JVTaZavZ11wcBZYtvzni-92" vertex="1" connectable="0">
          <mxGeometry x="0.1952" y="-7" relative="1" as="geometry">
            <mxPoint x="7" y="-9.999999999999998" as="offset" />
          </mxGeometry>
        </mxCell>
      </root>
    </mxGraphModel>
  </diagram>
</mxfile>
